<?xml version="1.0" encoding="UTF-8"?>
<!DOCTYPE svg PUBLIC "-//W3C//DTD SVG 1.1//EN" "http://www.w3.org/Graphics/SVG/1.1/DTD/svg11.dtd">
<svg xmlns="http://www.w3.org/2000/svg" version="1.1" width="1280px" height="640px" style="shape-rendering:geometricPrecision; text-rendering:geometricPrecision; image-rendering:optimizeQuality; fill-rule:evenodd; clip-rule:evenodd" xmlns:xlink="http://www.w3.org/1999/xlink">
<g><path style="opacity:0.97" fill="#fcfcfc" d="M 432.5,135.5 C 436.531,137.936 440.698,140.269 445,142.5C 445.5,211.833 445.667,281.166 445.5,350.5C 451.167,350.5 456.833,350.5 462.5,350.5C 469.354,350.824 476.021,350.491 482.5,349.5C 586.5,349.5 690.5,349.5 794.5,349.5C 794.833,349.5 795.167,349.5 795.5,349.5C 801.979,350.491 808.646,350.824 815.5,350.5C 821.167,350.5 826.833,350.5 832.5,350.5C 832.831,276.929 832.498,203.429 831.5,130C 767.236,93.2862 703.069,56.4528 639,19.5C 601.264,41.2862 563.431,62.9528 525.5,84.5C 520.782,81.4412 516.782,77.7745 513.5,73.5C 516.016,73.2447 518.35,72.4114 520.5,71C 556.5,50 592.5,29 628.5,8C 631.96,5.93495 635.626,4.43495 639.5,3.5C 708.988,42.4976 778.155,82.1642 847,122.5C 847.17,197.874 847.67,273.207 848.5,348.5C 849.025,349.192 849.692,349.692 850.5,350C 893.165,350.5 935.832,350.667 978.5,350.5C 978.5,396.5 978.5,442.5 978.5,488.5C 948.195,488.956 918.028,488.956 888,488.5C 875.1,488.361 862.267,488.861 849.5,490C 848.874,490.75 848.374,491.584 848,492.5C 847.819,501.411 847.319,510.245 846.5,519C 779.167,558 711.833,597 644.5,636C 640.833,638 637.167,638 633.5,636C 566.087,597.212 498.921,558.045 432,518.5C 431.666,512.651 431.166,506.817 430.5,501C 431.568,497.461 431.568,493.961 430.5,490.5C 429.975,489.808 429.308,489.308 428.5,489C 385.501,488.5 342.501,488.333 299.5,488.5C 299.333,443.165 299.5,397.832 300,352.5C 300.5,352 301,351.5 301.5,351C 344.884,351.159 388.051,350.326 431,348.5C 431.642,281.734 431.476,215.067 430.5,148.5C 430.976,143.993 431.643,139.66 432.5,135.5 Z"/></g>
<g><path style="opacity:0.999" fill="#1b1918" d="M 815.5,350.5 C 815.666,340.494 815.5,330.494 815,320.5C 809.237,327.686 803.237,334.686 797,341.5C 795.748,344.014 795.248,346.68 795.5,349.5C 795.167,349.5 794.833,349.5 794.5,349.5C 794.662,347.473 794.495,345.473 794,343.5C 793.506,345.134 793.34,346.801 793.5,348.5C 690.5,348.5 587.5,348.5 484.5,348.5C 484.665,345.482 484.498,342.482 484,339.5C 483.819,342.695 483.319,345.695 482.5,348.5C 482.665,344.818 482.499,341.152 482,337.5C 475.667,326.167 469.333,314.833 463,303.5C 462.5,319.163 462.333,334.83 462.5,350.5C 456.833,350.5 451.167,350.5 445.5,350.5C 445.667,281.166 445.5,211.833 445,142.5C 440.698,140.269 436.531,137.936 432.5,135.5C 423.622,129.797 415.122,123.463 407,116.5C 397.793,103.406 396.127,89.4061 402,74.5C 414.161,45.8391 435.661,33.3391 466.5,37C 471.223,38.1956 475.557,40.1956 479.5,43C 491.002,53.0036 502.336,63.1703 513.5,73.5C 516.782,77.7745 520.782,81.4412 525.5,84.5C 563.431,62.9528 601.264,41.2862 639,19.5C 703.069,56.4528 767.236,93.2862 831.5,130C 832.498,203.429 832.831,276.929 832.5,350.5C 826.833,350.5 821.167,350.5 815.5,350.5 Z"/></g>
<g><path style="opacity:1" fill="#f3a725" d="M 473.5,49.5 C 470.911,50.0369 468.244,49.5369 465.5,48C 459.984,47.1826 454.65,47.3493 449.5,48.5C 425.079,55.6584 412.413,71.9917 411.5,97.5C 411.605,101.319 412.438,104.986 414,108.5C 416.091,111.74 417.924,115.074 419.5,118.5C 410.162,113.675 405.829,105.842 406.5,95C 409.258,69.5708 422.591,52.2375 446.5,43C 456.739,40.6785 465.739,42.8451 473.5,49.5 Z"/></g>
<g><path style="opacity:1" fill="#fba825" d="M 636.5,46.5 C 638.199,46.3398 639.866,46.5065 641.5,47C 699.252,80.6263 757.085,114.126 815,147.5C 815.833,187.504 815.667,227.504 814.5,267.5C 808.5,262.833 802.5,258.167 796.5,253.5C 795.833,223.5 795.167,193.5 794.5,163.5C 743.5,134 692.5,104.5 641.5,75C 639.029,74.2937 636.695,74.627 634.5,76C 607.997,91.7525 581.33,107.252 554.5,122.5C 548.019,117.187 541.686,111.687 535.5,106C 569.23,86.1403 602.896,66.307 636.5,46.5 Z"/></g>
<g><path style="opacity:1" fill="#605b57" d="M 449.5,48.5 C 454.65,47.3493 459.984,47.1826 465.5,48C 468.244,49.5369 470.911,50.0369 473.5,49.5C 476.081,52.3203 477.914,55.6536 479,59.5C 480.915,85.5062 470.415,104.673 447.5,117C 438.149,120.836 428.815,121.336 419.5,118.5C 417.924,115.074 416.091,111.74 414,108.5C 412.438,104.986 411.605,101.319 411.5,97.5C 416.298,111.568 425.964,116.734 440.5,113C 456.594,106.671 467.094,95.171 472,78.5C 475.811,59.7317 468.311,49.7317 449.5,48.5 Z"/></g>
<g><path style="opacity:1" fill="#1a1918" d="M 449.5,48.5 C 468.311,49.7317 475.811,59.7317 472,78.5C 467.094,95.171 456.594,106.671 440.5,113C 425.964,116.734 416.298,111.568 411.5,97.5C 412.413,71.9917 425.079,55.6584 449.5,48.5 Z"/></g>
<g><path style="opacity:1" fill="#605b57" d="M 487.5,62.5 C 498.795,71.9573 509.961,81.624 521,91.5C 520.379,110.032 513.212,125.532 499.5,138C 490.606,144.787 480.606,148.12 469.5,148C 458.5,141.5 447.5,135 436.5,128.5C 469.222,118.765 486.222,96.765 487.5,62.5 Z"/></g>
<g><path style="opacity:1" fill="#faa725" d="M 636.5,100.5 C 638.989,100.298 641.323,100.798 643.5,102C 686.704,127.366 730.037,152.533 773.5,177.5C 774.833,197.833 774.833,218.167 773.5,238.5C 768.325,235.412 762.992,232.579 757.5,230C 755.951,228.786 754.785,227.286 754,225.5C 750.32,208.817 746.654,192.151 743,175.5C 732.407,168.117 721.24,161.617 709.5,156C 698.171,150.168 686.505,145.168 674.5,141C 643.067,137.243 611.733,137.743 580.5,142.5C 577.486,142.742 574.986,141.742 573,139.5C 572.312,138.668 572.479,138.002 573.5,137.5C 594.728,125.392 615.728,113.059 636.5,100.5 Z"/></g>
<g><path style="opacity:0.965" fill="#efa626" d="M 562.5,139.5 C 562.103,140.525 561.437,140.692 560.5,140C 549.793,131.657 538.793,123.823 527.5,116.5C 527.857,114.411 528.523,112.411 529.5,110.5C 540.719,119.939 551.719,129.606 562.5,139.5 Z"/></g>
<g><path style="opacity:1" fill="#605b58" d="M 527.5,116.5 C 538.793,123.823 549.793,131.657 560.5,140C 561.437,140.692 562.103,140.525 562.5,139.5C 576.355,151.699 590.188,164.032 604,176.5C 603.771,191.901 595.937,200.568 580.5,202.5C 577.567,202.534 574.9,201.701 572.5,200C 547.995,184.249 523.662,168.249 499.5,152C 506.648,146.85 513.148,141.017 519,134.5C 522.154,128.53 524.988,122.53 527.5,116.5 Z"/></g>
<g><path style="opacity:0.906" fill="#e19c27" d="M 623.5,145.5 C 611.661,147.647 599.661,149.647 587.5,151.5C 586.522,151.189 585.855,150.522 585.5,149.5C 598.007,146.787 610.674,145.454 623.5,145.5 Z"/></g>
<g><path style="opacity:1" fill="#615b57" d="M 623.5,145.5 C 638.881,145.264 654.215,145.93 669.5,147.5C 666.779,165.877 663.779,184.21 660.5,202.5C 656.833,202.5 653.167,202.5 649.5,202.5C 650.36,190.725 652.026,179.058 654.5,167.5C 654.449,165.9 654.116,164.4 653.5,163C 635.497,159.475 617.331,158.641 599,160.5C 594.168,158.827 590.335,155.827 587.5,151.5C 599.661,149.647 611.661,147.647 623.5,145.5 Z"/></g>
<g><path style="opacity:1" fill="#605b57" d="M 677.5,150.5 C 696.77,157.967 715.437,166.801 733.5,177C 735.487,178.319 736.654,180.152 737,182.5C 738.519,189.524 740.019,196.524 741.5,203.5C 740.167,203.5 738.833,203.5 737.5,203.5C 736.656,196.787 735.489,190.12 734,183.5C 728.077,178.785 721.577,174.951 714.5,172C 704.923,167.795 695.089,164.295 685,161.5C 683.289,161.439 681.956,162.106 681,163.5C 679.186,174.198 677.186,184.865 675,195.5C 673.364,197.55 671.198,198.55 668.5,198.5C 671.288,182.438 674.288,166.438 677.5,150.5 Z"/></g>
<g><path style="opacity:1" fill="#fba825" d="M 462.5,152.5 C 470.739,156.348 479.073,156.348 487.5,152.5C 490.285,153.059 492.618,154.392 494.5,156.5C 491.003,159.083 487.336,161.416 483.5,163.5C 482.5,181.821 482.167,200.155 482.5,218.5C 478.658,218.239 474.991,218.906 471.5,220.5C 468.479,223.686 465.646,227.02 463,230.5C 462.5,204.502 462.333,178.502 462.5,152.5 Z"/></g>
<g><path style="opacity:1" fill="#605b57" d="M 605.5,166.5 C 618.185,166.486 630.852,166.986 643.5,168C 644.624,168.249 645.624,168.749 646.5,169.5C 644.687,180.821 643.02,192.154 641.5,203.5C 631.715,201.826 623.715,204.659 617.5,212C 597.849,213.832 578.182,215.332 558.5,216.5C 558.466,213.801 559.133,211.301 560.5,209C 569.812,209.442 579.146,209.442 588.5,209C 604.665,203.169 612.499,191.669 612,174.5C 609.218,172.229 607.051,169.563 605.5,166.5 Z"/></g>
<g><path style="opacity:1" fill="#fba825" d="M 513.5,171.5 C 515.199,171.34 516.866,171.506 518.5,172C 524.048,175.6 529.381,179.434 534.5,183.5C 529.833,193.5 525.167,203.5 520.5,213.5C 514.939,215.023 509.272,215.69 503.5,215.5C 503.168,202.816 503.501,190.149 504.5,177.5C 507.738,175.725 510.738,173.725 513.5,171.5 Z"/></g>
<g><path style="opacity:1" fill="#605b57" d="M 687.5,169.5 C 700.175,173.783 712.508,178.949 724.5,185C 725.99,185.745 726.99,186.912 727.5,188.5C 728.061,191.535 728.727,194.535 729.5,197.5C 725.145,198.113 720.811,197.613 716.5,196C 705.839,195.5 695.172,195.333 684.5,195.5C 684.135,198.625 683.302,201.625 682,204.5C 683.501,192.828 685.335,181.161 687.5,169.5 Z"/></g>
<g><path style="opacity:1" fill="#605b57" d="M 532.5,205.5 C 535.5,205.5 538.5,205.5 541.5,205.5C 540.975,210.076 539.641,214.41 537.5,218.5C 535.301,215.945 532.634,214.279 529.5,213.5C 529.94,210.62 530.94,207.954 532.5,205.5 Z"/></g>
<g><path style="opacity:1" fill="#605b57" d="M 648.5,210.5 C 659.301,210.192 669.968,211.025 680.5,213C 671.5,221.333 662.5,229.667 653.5,238C 639.171,238.5 624.837,238.667 610.5,238.5C 616.559,230.265 623.225,222.431 630.5,215C 636.715,213.808 642.715,212.308 648.5,210.5 Z"/></g>
<g><path style="opacity:1" fill="#eba628" d="M 648.5,210.5 C 642.715,212.308 636.715,213.808 630.5,215C 623.225,222.431 616.559,230.265 610.5,238.5C 608.645,238.728 607.812,238.061 608,236.5C 614.714,228.241 621.548,220.074 628.5,212C 635.12,210.863 641.786,210.363 648.5,210.5 Z"/></g>
<g><path style="opacity:1" fill="#605b57" d="M 689.5,214.5 C 733.857,223.347 773.191,242.347 807.5,271.5C 808.645,273.635 808.645,275.801 807.5,278C 807.15,279.257 806.483,279.591 805.5,279C 790.737,264.442 773.737,253.109 754.5,245C 733.537,235.676 711.87,229.01 689.5,225C 682.167,231.667 674.833,238.333 667.5,245C 662.927,248.44 660.427,247.273 660,241.5C 670.329,233.003 680.162,224.003 689.5,214.5 Z"/></g>
<g><path style="opacity:1" fill="#615b58" d="M 609.5,219.5 C 611.028,219.517 611.528,220.184 611,221.5C 606.333,227.5 601.667,233.5 597,239.5C 596.333,241.5 596.333,243.5 597,245.5C 598.674,249.021 599.84,252.687 600.5,256.5C 576.169,257.733 551.836,259.067 527.5,260.5C 524.833,260.167 522.167,259.833 519.5,259.5C 524.693,250.426 530.36,241.76 536.5,233.5C 561.123,229.566 585.457,224.9 609.5,219.5 Z"/></g>
<g><path style="opacity:1" fill="#605b58" d="M 463.5,247.5 C 467.95,241.21 472.617,235.043 477.5,229C 482.708,227.705 487.708,226.205 492.5,224.5C 502.12,223.065 511.787,222.565 521.5,223C 516.216,230.619 510.549,237.952 504.5,245C 490.856,246.268 477.189,247.101 463.5,247.5 Z"/></g>
<g><path style="opacity:1" fill="#f4a625" d="M 609.5,219.5 C 585.457,224.9 561.123,229.566 536.5,233.5C 539.455,227.369 544.455,224.535 551.5,225C 570.832,223.056 590.165,221.222 609.5,219.5 Z"/></g>
<g><path style="opacity:0.98" fill="#635e5a" d="M 530.5,223.5 C 532.225,223.843 532.725,224.843 532,226.5C 529,230.167 526,233.833 523,237.5C 522.333,236.167 522.333,234.833 523,233.5C 525.717,230.29 528.217,226.956 530.5,223.5 Z"/></g>
<g><path style="opacity:1" fill="#605b57" d="M 697.5,233.5 C 705.151,235.494 712.818,237.494 720.5,239.5C 720.67,240.822 720.337,241.989 719.5,243C 712.64,242.943 705.973,241.61 699.5,239C 698.536,237.275 697.869,235.441 697.5,233.5 Z"/></g>
<g><path style="opacity:0.98" fill="#eaa427" d="M 492.5,224.5 C 487.708,226.205 482.708,227.705 477.5,229C 472.617,235.043 467.95,241.21 463.5,247.5C 462.399,248.598 461.066,248.765 459.5,248C 464.784,240.381 470.451,233.048 476.5,226C 481.822,225.316 487.156,224.816 492.5,224.5 Z"/></g>
<g><path style="opacity:1" fill="#615c58" d="M 688.5,235.5 C 689.496,235.414 690.329,235.748 691,236.5C 691.667,238.167 691.667,239.833 691,241.5C 687.855,244.734 684.522,247.734 681,250.5C 678.945,249.328 678.278,247.661 679,245.5C 682.371,242.297 685.538,238.964 688.5,235.5 Z"/></g>
<g><path style="opacity:0.976" fill="#66605c" d="M 605.5,246.5 C 621.17,246.333 636.837,246.5 652.5,247C 653.167,247.667 653.833,248.333 654.5,249C 638.17,249.5 621.837,249.667 605.5,249.5C 605.5,248.5 605.5,247.5 605.5,246.5 Z"/></g>
<g><path style="opacity:0.995" fill="#605b57" d="M 727.5,242.5 C 734.255,244.709 740.922,247.209 747.5,250C 749,252.167 748.5,253.667 746,254.5C 739.794,252.265 733.628,249.932 727.5,247.5C 726.334,245.833 726.334,244.166 727.5,242.5 Z"/></g>
<g><path style="opacity:1" fill="#5e5955" d="M 491.5,252.5 C 496.179,252.334 500.845,252.501 505.5,253C 506.357,253.689 507.023,254.522 507.5,255.5C 505.577,256.308 503.577,256.808 501.5,257C 487.786,257.925 474.12,259.092 460.5,260.5C 458.244,259.579 457.244,257.912 457.5,255.5C 469.074,255.533 480.408,254.533 491.5,252.5 Z"/></g>
<g><path style="opacity:1" fill="#605b57" d="M 671.5,252.5 C 674.076,252.722 674.91,254.055 674,256.5C 670.833,259.667 667.667,262.833 664.5,266C 662.421,266.808 660.421,266.641 658.5,265.5C 662.548,260.785 666.881,256.452 671.5,252.5 Z"/></g>
<g><path style="opacity:1" fill="#605b57" d="M 608.5,257.5 C 623.848,257.167 639.181,257.501 654.5,258.5C 652.644,261.19 650.311,263.356 647.5,265C 632.822,265.833 618.155,265.666 603.5,264.5C 604.804,261.87 606.47,259.537 608.5,257.5 Z"/></g>
<g><path style="opacity:1" fill="#615c58" d="M 755.5,254.5 C 761.557,257.027 767.557,259.86 773.5,263C 776.105,264.931 776.105,266.764 773.5,268.5C 767.658,265.079 761.658,261.912 755.5,259C 754.587,257.586 754.587,256.086 755.5,254.5 Z"/></g>
<g><path style="opacity:1" fill="#615c58" d="M 494.5,264.5 C 498.514,264.334 502.514,264.501 506.5,265C 505.167,267 503.833,269 502.5,271C 488.535,272.439 474.535,273.272 460.5,273.5C 460.472,271.418 461.139,269.584 462.5,268C 473.304,266.781 483.971,265.615 494.5,264.5 Z"/></g>
<g><path style="opacity:1" fill="#615c58" d="M 511.5,270.5 C 516.562,276.289 519.728,282.956 521,290.5C 520.333,291.167 519.667,291.833 519,292.5C 516,287.167 513,281.833 510,276.5C 509.252,274.16 509.752,272.16 511.5,270.5 Z"/></g>
<g><path style="opacity:1" fill="#5f5a56" d="M 603.5,272.5 C 618.182,272.167 632.848,272.501 647.5,273.5C 649.891,279.949 652.558,286.282 655.5,292.5C 641.512,293.666 627.512,293.833 613.5,293C 609.221,286.609 605.888,279.776 603.5,272.5 Z"/></g>
<g><path style="opacity:1" fill="#615c58" d="M 656.5,274.5 C 658.288,274.215 659.955,274.548 661.5,275.5C 664.176,279.5 665.676,283.833 666,288.5C 665,289.167 664,289.833 663,290.5C 660.003,285.505 657.836,280.172 656.5,274.5 Z"/></g>
<g><path style="opacity:1" fill="#615c58" d="M 782.5,269.5 C 788.208,272.705 793.208,276.872 797.5,282C 795.282,285.089 792.949,285.089 790.5,282C 787.631,278.796 784.465,275.963 781,273.5C 780.7,271.934 781.2,270.601 782.5,269.5 Z"/></g>
<g><path style="opacity:1" fill="#605b57" d="M 483.5,279.5 C 490.175,279.334 496.842,279.5 503.5,280C 506.533,284.56 509.2,289.394 511.5,294.5C 496.832,295.881 482.165,296.215 467.5,295.5C 465.421,291.007 463.088,286.674 460.5,282.5C 468.242,281.073 475.909,280.073 483.5,279.5 Z"/></g>
<g><path style="opacity:0.973" fill="#ee9f24" d="M 814.5,278.5 C 815.647,282.646 815.814,286.98 815,291.5C 813.954,290.228 813.454,288.728 813.5,287C 814.031,284.183 814.364,281.35 814.5,278.5 Z"/></g>
<g><path style="opacity:1" fill="#605b57" d="M 668.5,295.5 C 669.496,295.414 670.329,295.748 671,296.5C 673.5,302.167 676,307.833 678.5,313.5C 677.472,315.361 675.972,316.695 674,317.5C 671.15,311.136 668.316,304.803 665.5,298.5C 666.34,297.265 667.34,296.265 668.5,295.5 Z"/></g>
<g><path style="opacity:0.976" fill="#605b57" d="M 801.5,287.5 C 807.162,292.135 810.829,298.135 812.5,305.5C 810.61,305.703 809.11,305.037 808,303.5C 806.416,299.325 804.082,295.659 801,292.5C 800.616,290.803 800.782,289.137 801.5,287.5 Z"/></g>
<g><path style="opacity:1" fill="#615c58" d="M 618.5,301.5 C 632.183,301.167 645.85,301.501 659.5,302.5C 662.029,308.086 664.362,313.753 666.5,319.5C 653.5,320.833 640.5,320.833 627.5,319.5C 623.962,313.757 620.962,307.757 618.5,301.5 Z"/></g>
<g><path style="opacity:1" fill="#615c58" d="M 472.5,303.5 C 487.17,303.333 501.837,303.5 516.5,304C 520.27,309.032 522.77,314.532 524,320.5C 509.575,319.675 495.075,319.175 480.5,319C 477.169,314.172 474.503,309.005 472.5,303.5 Z"/></g>
<g><path style="opacity:1" fill="#605b57" d="M 525.5,296.5 C 529.309,301.433 532.642,306.766 535.5,312.5C 534.5,313.833 533.5,315.167 532.5,316.5C 529.415,312 526.582,307.333 524,302.5C 523.252,300.16 523.752,298.16 525.5,296.5 Z"/></g>
<g><path style="opacity:1" fill="#faa82a" d="M 482.5,348.5 C 482.5,348.833 482.5,349.167 482.5,349.5C 476.021,350.491 469.354,350.824 462.5,350.5C 462.333,334.83 462.5,319.163 463,303.5C 469.333,314.833 475.667,326.167 482,337.5C 482.499,341.152 482.665,344.818 482.5,348.5 Z"/></g>
<g><path style="opacity:0.978" fill="#645f5a" d="M 806.5,312.5 C 808.288,312.215 809.955,312.548 811.5,313.5C 809.167,316.5 806.5,319.167 803.5,321.5C 802.28,321.113 801.613,320.28 801.5,319C 802.985,316.683 804.652,314.516 806.5,312.5 Z"/></g>
<g><path style="opacity:1" fill="#605c58" d="M 680.5,321.5 C 681.458,321.953 682.292,322.619 683,323.5C 684.314,326.624 685.48,329.791 686.5,333C 686.166,335.175 685.166,337.008 683.5,338.5C 680.928,334.361 678.595,330.027 676.5,325.5C 677.867,324.16 679.2,322.827 680.5,321.5 Z"/></g>
<g><path style="opacity:1" fill="#fcaa2b" d="M 815.5,350.5 C 808.646,350.824 801.979,350.491 795.5,349.5C 795.248,346.68 795.748,344.014 797,341.5C 803.237,334.686 809.237,327.686 815,320.5C 815.5,330.494 815.666,340.494 815.5,350.5 Z"/></g>
<g><path style="opacity:0.999" fill="#615c58" d="M 485.5,327.5 C 500.17,327.333 514.837,327.5 529.5,328C 532.547,332.592 535.214,337.426 537.5,342.5C 522.845,343.666 508.178,343.833 493.5,343C 490.169,338.172 487.503,333.005 485.5,327.5 Z"/></g>
<g><path style="opacity:1" fill="#605b57" d="M 632.5,327.5 C 644.838,327.333 657.171,327.5 669.5,328C 672.314,332.94 674.648,338.106 676.5,343.5C 664.514,344.666 652.514,344.833 640.5,344C 637.422,338.677 634.755,333.177 632.5,327.5 Z"/></g>
<g><path style="opacity:1" fill="#605b57" d="M 538.5,321.5 C 539.496,321.414 540.329,321.748 541,322.5C 543.5,326.833 546,331.167 548.5,335.5C 547.52,336.981 546.353,338.315 545,339.5C 542.083,335.334 539.416,331.001 537,326.5C 536.387,324.505 536.887,322.838 538.5,321.5 Z"/></g>
<g><path style="opacity:1" fill="#615c58" d="M 794.5,325.5 C 796.384,325.712 797.717,326.712 798.5,328.5C 795.559,332.944 792.059,336.944 788,340.5C 787.55,338.481 786.717,336.648 785.5,335C 788.704,331.964 791.704,328.797 794.5,325.5 Z"/></g>
<g><path style="opacity:1" fill="#625d59" d="M 744.5,337.5 C 749.167,337.5 753.833,337.5 758.5,337.5C 758.5,339.833 758.5,342.167 758.5,344.5C 753.833,344.5 749.167,344.5 744.5,344.5C 744.5,342.167 744.5,339.833 744.5,337.5 Z"/></g>
<g><path style="opacity:1" fill="#615c58" d="M 692.5,337.5 C 698.5,337.5 704.5,337.5 710.5,337.5C 710.5,339.833 710.5,342.167 710.5,344.5C 703.468,344.83 696.468,344.497 689.5,343.5C 690.559,341.466 691.559,339.466 692.5,337.5 Z"/></g>
<g><path style="opacity:1" fill="#65605c" d="M 554.5,340.5 C 559.5,340.5 564.5,340.5 569.5,340.5C 569.5,341.5 569.5,342.5 569.5,343.5C 563.824,343.666 558.157,343.499 552.5,343C 553.381,342.292 554.047,341.458 554.5,340.5 Z"/></g>
<g><path style="opacity:1" fill="#5d5955" d="M 577.5,340.5 C 584.5,340.5 591.5,340.5 598.5,340.5C 598.5,341.833 598.5,343.167 598.5,344.5C 591.5,344.5 584.5,344.5 577.5,344.5C 577.5,343.167 577.5,341.833 577.5,340.5 Z"/></g>
<g><path style="opacity:1" fill="#5e5955" d="M 606.5,340.5 C 609.833,340.5 613.167,340.5 616.5,340.5C 616.5,341.833 616.5,343.167 616.5,344.5C 613.167,344.5 609.833,344.5 606.5,344.5C 606.5,343.167 606.5,341.833 606.5,340.5 Z"/></g>
<g><path style="opacity:0.995" fill="#5e5a56" d="M 766.5,337.5 C 770.884,337.174 775.217,337.508 779.5,338.5C 780.167,340.167 780.833,341.833 781.5,343.5C 776.544,344.494 771.544,344.827 766.5,344.5C 766.5,342.167 766.5,339.833 766.5,337.5 Z"/></g>
<g><path style="opacity:1" fill="#615c58" d="M 717.5,337.5 C 723.833,337.5 730.167,337.5 736.5,337.5C 736.5,339.833 736.5,342.167 736.5,344.5C 730.167,344.5 723.833,344.5 717.5,344.5C 717.5,342.167 717.5,339.833 717.5,337.5 Z"/></g>
<g><path style="opacity:0.976" fill="#050403" d="M 794.5,349.5 C 690.5,349.5 586.5,349.5 482.5,349.5C 482.5,349.167 482.5,348.833 482.5,348.5C 483.319,345.695 483.819,342.695 484,339.5C 484.498,342.482 484.665,345.482 484.5,348.5C 587.5,348.5 690.5,348.5 793.5,348.5C 793.34,346.801 793.506,345.134 794,343.5C 794.495,345.473 794.662,347.473 794.5,349.5 Z"/></g>
<g><path style="opacity:0.878" fill="#666564" d="M 314.5,365.5 C 314.5,401.5 314.5,437.5 314.5,473.5C 530.833,473.5 747.167,473.5 963.5,473.5C 963.5,437.5 963.5,401.5 963.5,365.5C 964.498,401.663 964.832,437.996 964.5,474.5C 747.5,474.5 530.5,474.5 313.5,474.5C 313.168,437.996 313.502,401.663 314.5,365.5 Z"/></g>
<g><path style="opacity:1" fill="#121210" d="M 314.5,365.5 C 530.833,365.5 747.167,365.5 963.5,365.5C 963.5,401.5 963.5,437.5 963.5,473.5C 747.167,473.5 530.833,473.5 314.5,473.5C 314.5,437.5 314.5,401.5 314.5,365.5 Z"/></g>
<g><path style="opacity:1" fill="#1c1b19" d="M 315.5,367.5 C 531.167,367.5 746.833,367.5 962.5,367.5C 962.5,402.5 962.5,437.5 962.5,472.5C 746.833,472.5 531.167,472.5 315.5,472.5C 315.5,437.5 315.5,402.5 315.5,367.5 Z"/></g>
<g><path style="opacity:1" fill="#fefffe" d="M 850.5,442.5 C 851.756,442.461 852.756,442.961 853.5,444C 846.167,444.667 838.833,444.667 831.5,444C 838.013,443.828 844.347,443.328 850.5,442.5 Z"/></g>
<g><path style="opacity:1" fill="#fefffe" d="M 777.5,442.5 C 778.289,442.783 778.956,443.283 779.5,444C 773.167,444.667 766.833,444.667 760.5,444C 766.348,443.827 772.015,443.327 777.5,442.5 Z"/></g>
<g><path style="opacity:1" fill="#fefffe" d="M 757.5,442.5 C 758.289,442.783 758.956,443.283 759.5,444C 752.833,444.667 746.167,444.667 739.5,444C 745.681,443.828 751.681,443.328 757.5,442.5 Z"/></g>
<g><path style="opacity:1" fill="#fefffe" d="M 724.5,442.5 C 725.289,442.783 725.956,443.283 726.5,444C 720.167,444.667 713.833,444.667 707.5,444C 713.348,443.827 719.015,443.327 724.5,442.5 Z"/></g>
<g><path style="opacity:1" fill="#fefffe" d="M 537.5,442.5 C 538.289,442.783 538.956,443.283 539.5,444C 533.5,444.667 527.5,444.667 521.5,444C 527.016,443.827 532.349,443.327 537.5,442.5 Z"/></g>
<g><path style="opacity:1" fill="#fefffe" d="M 502.5,442.5 C 503.289,442.783 503.956,443.283 504.5,444C 497.167,444.667 489.833,444.667 482.5,444C 489.346,443.828 496.013,443.328 502.5,442.5 Z"/></g>
<g><path style="opacity:1" fill="#fefffe" d="M 445.5,442.5 C 446.289,442.783 446.956,443.283 447.5,444C 441.5,444.667 435.5,444.667 429.5,444C 435.016,443.827 440.349,443.327 445.5,442.5 Z"/></g>
<g><path style="opacity:1" fill="#fefffe" d="M 884.5,441.5 C 883.998,443.085 882.998,443.585 881.5,443C 882.244,441.961 883.244,441.461 884.5,441.5 Z"/></g>
<g><path style="opacity:1" fill="#fefffe" d="M 469.5,441.5 C 472.137,443.154 471.803,443.654 468.5,443C 469.056,442.617 469.389,442.117 469.5,441.5 Z"/></g>
<g><path style="opacity:1" fill="#fefffe" d="M 821.5,440.5 C 822.837,441.315 823.837,442.482 824.5,444C 818.5,444.667 812.5,444.667 806.5,444C 811.833,443.667 817.167,443.333 822.5,443C 821.748,442.329 821.414,441.496 821.5,440.5 Z"/></g>
<g><path style="opacity:1" fill="#fefffe" d="M 691.5,440.5 C 692.837,441.315 693.837,442.482 694.5,444C 688.5,444.667 682.5,444.667 676.5,444C 681.833,443.667 687.167,443.333 692.5,443C 691.748,442.329 691.414,441.496 691.5,440.5 Z"/></g>
<g><path style="opacity:1" fill="#fefffe" d="M 587.5,440.5 C 588.837,441.315 589.837,442.482 590.5,444C 584.5,444.667 578.5,444.667 572.5,444C 577.833,443.667 583.167,443.333 588.5,443C 587.748,442.329 587.414,441.496 587.5,440.5 Z"/></g>
<g><path style="opacity:1" fill="#fefffe" d="M 469.5,441.5 C 468.244,441.539 467.244,441.039 466.5,440C 467.998,439.415 468.998,439.915 469.5,441.5 Z"/></g>
<g><path style="opacity:1" fill="#fefffe" d="M 884.5,441.5 C 885.122,440.373 885.955,439.373 887,438.5C 887.519,440.489 886.686,441.489 884.5,441.5 Z"/></g>
<g><path style="opacity:1" fill="#fefffe" d="M 417.5,438.5 C 418.525,438.897 418.692,439.563 418,440.5C 417.163,442.007 415.996,442.507 414.5,442C 415.71,440.961 416.71,439.794 417.5,438.5 Z"/></g>
<g><path style="opacity:1" fill="#fefffe" d="M 639.5,435.5 C 638.526,438.648 636.526,440.481 633.5,441C 634.381,440.292 635.047,439.458 635.5,438.5C 636.833,437.5 638.167,436.5 639.5,435.5 Z"/></g>
<g><path style="opacity:1" fill="#fefffe" d="M 639.5,435.5 C 639.461,434.244 639.961,433.244 641,432.5C 641.585,433.998 641.085,434.998 639.5,435.5 Z"/></g>
<g><path style="opacity:1" fill="#fefffe" d="M 421.5,427.5 C 422.043,427.56 422.376,427.893 422.5,428.5C 421.811,430.444 421.311,432.444 421,434.5C 420.297,432.071 420.463,429.738 421.5,427.5 Z"/></g>
<g><path style="opacity:1" fill="#fefffe" d="M 890.5,425.5 C 891.851,428.772 891.684,432.106 890,435.5C 890.201,432.223 890.368,428.889 890.5,425.5 Z"/></g>
<g><path style="opacity:1" fill="#fefffe" d="M 533.5,438.5 C 533.5,433.167 533.5,427.833 533.5,422.5C 537.514,422.334 541.514,422.501 545.5,423C 541.848,423.499 538.182,423.665 534.5,423.5C 534.821,428.695 534.487,433.695 533.5,438.5 Z"/></g>
<g><path style="opacity:1" fill="#fefffe" d="M 745.5,420.5 C 747.527,420.338 749.527,420.505 751.5,421C 749.273,421.121 747.44,421.954 746,423.5C 745.517,422.552 745.351,421.552 745.5,420.5 Z"/></g>
<g><path style="opacity:1" fill="#fefffe" d="M 552.5,420.5 C 550.881,422.238 548.881,422.738 546.5,422C 548.436,421.187 550.436,420.687 552.5,420.5 Z"/></g>
<g><path style="opacity:1" fill="#fefffe" d="M 498.5,420.5 C 499.043,420.56 499.376,420.893 499.5,421.5C 498.714,426.781 498.214,432.115 498,437.5C 497.215,431.751 497.382,426.084 498.5,420.5 Z"/></g>
<g><path style="opacity:1" fill="#fefffe" d="M 454.5,419.5 C 456.646,419.696 456.812,420.696 455,422.5C 454.517,421.552 454.351,420.552 454.5,419.5 Z"/></g>
<g><path style="opacity:1" fill="#fefffe" d="M 857.5,419.5 C 858.497,418.287 859.497,418.454 860.5,420C 859.423,420.47 858.423,420.303 857.5,419.5 Z"/></g>
<g><path style="opacity:1" fill="#fefffe" d="M 556.5,416.5 C 556.167,418.833 554.833,420.167 552.5,420.5C 553.5,418.833 554.833,417.5 556.5,416.5 Z"/></g>
<g><path style="opacity:1" fill="#fefffe" d="M 503.5,412.5 C 504.713,413.497 504.546,414.497 503,415.5C 502.53,414.423 502.697,413.423 503.5,412.5 Z"/></g>
<g><path style="opacity:1" fill="#fefffe" d="M 463.5,411.5 C 464.573,412.251 464.74,413.251 464,414.5C 462.578,416.638 460.745,417.805 458.5,418C 460.79,416.223 462.457,414.056 463.5,411.5 Z"/></g>
<g><path style="opacity:1" fill="#fefffe" d="M 718.5,410.5 C 719.289,410.783 719.956,411.283 720.5,412C 719.184,412.528 718.517,412.028 718.5,410.5 Z"/></g>
<g><path style="opacity:1" fill="#fefffe" d="M 417.5,407.5 C 418.465,408.721 418.298,410.054 417,411.5C 416.421,410.072 416.588,408.738 417.5,407.5 Z"/></g>
<g><path style="opacity:1" fill="#fefffe" d="M 556.5,416.5 C 557.08,412.858 557.58,409.191 558,405.5C 558.667,408.5 558.667,411.5 558,414.5C 557.722,415.416 557.222,416.082 556.5,416.5 Z"/></g>
<g><path style="opacity:1" fill="#fefffe" d="M 508.5,404.5 C 509.713,405.497 509.546,406.497 508,407.5C 507.53,406.423 507.697,405.423 508.5,404.5 Z"/></g>
<g><path style="opacity:1" fill="#fefffe" d="M 797.5,403.5 C 798.496,416.99 798.829,430.656 798.5,444.5C 795.813,444.664 793.146,444.497 790.5,444C 792.81,443.503 795.143,443.337 797.5,443.5C 797.5,430.167 797.5,416.833 797.5,403.5 Z"/></g>
<g><path style="opacity:1" fill="#fefffe" d="M 704.5,399.5 C 705.713,400.497 705.546,401.497 704,402.5C 703.53,401.423 703.697,400.423 704.5,399.5 Z"/></g>
<g><path style="opacity:1" fill="#fefffe" d="M 600.5,399.5 C 601.713,400.497 601.546,401.497 600,402.5C 599.53,401.423 599.697,400.423 600.5,399.5 Z"/></g>
<g><path style="opacity:1" fill="#fefffe" d="M 421.5,399.5 C 424.001,399.511 424.168,400.178 422,401.5C 421.536,400.906 421.369,400.239 421.5,399.5 Z"/></g>
<g><path style="opacity:1" fill="#fefffe" d="M 740.5,397.5 C 741.043,397.56 741.376,397.893 741.5,398.5C 740.066,400.22 739.233,402.22 739,404.5C 738.167,401.829 738.667,399.496 740.5,397.5 Z"/></g>
<g><path style="opacity:1" fill="#fdfdfd" d="M 821.5,440.5 C 816.25,441.615 810.917,441.781 805.5,441C 806.667,439.833 807.833,438.667 809,437.5C 809.667,425.167 809.667,412.833 809,400.5C 807.833,399.333 806.667,398.167 805.5,397C 810.833,396.333 816.167,396.333 821.5,397C 819.714,397.785 818.214,398.951 817,400.5C 816.333,407.5 816.333,414.5 817,421.5C 818.149,414.421 818.982,407.254 819.5,400C 821.939,399.485 822.105,399.985 820,401.5C 819.333,407.167 819.333,412.833 820,418.5C 823.76,413.317 827.76,408.317 832,403.5C 833.042,400.196 831.875,398.029 828.5,397C 834.5,396.333 840.5,396.333 846.5,397C 843.048,397.892 840.048,399.558 837.5,402C 834.87,405.632 831.87,408.965 828.5,412C 832.952,421.074 837.786,429.907 843,438.5C 843.333,437.833 843.667,437.167 844,436.5C 844.833,438 846,439.167 847.5,440C 842.01,441.614 836.343,441.947 830.5,441C 831.687,439.981 832.687,438.814 833.5,437.5C 830.06,430.955 826.894,424.288 824,417.5C 821.667,420.5 819.333,423.5 817,426.5C 817.002,442.5 817.669,442.5 819,426.5C 819.333,430.5 819.667,434.5 820,438.5C 820.717,439.044 821.217,439.711 821.5,440.5 Z"/></g>
<g><path style="opacity:1" fill="#fefffe" d="M 822.5,421.5 C 823.713,422.497 823.546,423.497 822,424.5C 821.53,423.423 821.697,422.423 822.5,421.5 Z"/></g>
<g><path style="opacity:1" fill="#fefffe" d="M 762.5,397.5 C 767.985,396.348 773.651,396.182 779.5,397C 777.697,397.637 776.364,398.803 775.5,400.5C 781,410.833 786.5,421.167 792,431.5C 792.49,421.618 792.49,411.618 792,401.5C 791.167,399.333 789.667,397.833 787.5,397C 792.167,396.333 796.833,396.333 801.5,397C 798.572,398.26 796.739,400.427 796,403.5C 795.5,416.162 795.333,428.829 795.5,441.5C 793.208,441.756 791.041,441.423 789,440.5C 783.667,430.5 778.333,420.5 773,410.5C 772.667,418.5 772.333,426.5 772,434.5C 771.951,424.401 771.284,414.401 770,404.5C 769.094,415.559 769.427,426.559 771,437.5C 772.579,439.041 774.413,440.208 776.5,441C 771.167,441.667 765.833,441.667 760.5,441C 763.428,439.74 765.261,437.573 766,434.5C 766.833,422.819 766.666,411.152 765.5,399.5C 764.482,398.807 763.482,398.141 762.5,397.5 Z"/></g>
<g><path style="opacity:1" fill="#fefffe" d="M 788.5,420.5 C 790.085,421.002 790.585,422.002 790,423.5C 788.961,422.756 788.461,421.756 788.5,420.5 Z"/></g>
<g><path style="opacity:1" fill="#fefffe" d="M 778.5,401.5 C 780.416,402.665 781.249,404.332 781,406.5C 779.628,405.09 778.795,403.423 778.5,401.5 Z"/></g>
<g><path style="opacity:1" fill="#fefffe" d="M 778.5,401.5 C 777.227,400.923 777.227,400.257 778.5,399.5C 779.463,399.97 779.463,400.637 778.5,401.5 Z"/></g>
<g><path style="opacity:1" fill="#fefefe" d="M 723.5,425.5 C 723.539,424.244 723.039,423.244 722,422.5C 719.531,426.894 718.531,431.561 719,436.5C 719.919,439.402 720.752,439.735 721.5,437.5C 722.954,438.52 723.287,439.687 722.5,441C 717.167,441.667 711.833,441.667 706.5,441C 713.203,435.782 717.536,428.948 719.5,420.5C 717.954,419.316 716.287,418.316 714.5,417.5C 715.333,415.833 716.167,414.167 717,412.5C 719.731,416.778 721.731,416.444 723,411.5C 724.07,408.124 725.236,404.79 726.5,401.5C 726.124,399.617 725.124,398.117 723.5,397C 728.833,396.333 734.167,396.333 739.5,397C 736.053,399.636 735.553,402.803 738,406.5C 739.147,409.618 740.48,412.618 742,415.5C 742.359,412.456 743.026,412.122 744,414.5C 745.185,412.441 746.352,412.274 747.5,414C 747.903,415.473 748.57,416.806 749.5,418C 747.833,418.333 746.167,418.667 744.5,419C 743.978,419.561 743.645,420.228 743.5,421C 745.424,427.114 747.924,432.947 751,438.5C 751.333,437.833 751.667,437.167 752,436.5C 752.833,438 754,439.167 755.5,440C 749.674,441.617 743.674,441.95 737.5,441C 739.613,440.128 740.946,438.628 741.5,436.5C 740.1,432.467 738.6,428.467 737,424.5C 734.294,426.871 731.961,429.537 730,432.5C 728.718,429.214 726.552,426.88 723.5,425.5 Z"/></g>
<g><path style="opacity:1" fill="#1a1a17" d="M 723.5,425.5 C 720.897,429.268 720.231,433.268 721.5,437.5C 720.752,439.735 719.919,439.402 719,436.5C 718.531,431.561 719.531,426.894 722,422.5C 723.039,423.244 723.539,424.244 723.5,425.5 Z"/></g>
<g><path style="opacity:1" fill="#272624" d="M 728.5,404.5 C 729.289,404.783 729.956,405.283 730.5,406C 729.483,407.049 729.316,408.216 730,409.5C 730.333,409.167 730.667,408.833 731,408.5C 732.5,412.333 734,416.167 735.5,420C 734.056,422.449 732.222,424.615 730,426.5C 727.955,423.577 725.788,420.743 723.5,418C 725.66,413.686 727.327,409.186 728.5,404.5 Z"/></g>
<g><path style="opacity:1" fill="#fefffe" d="M 726.5,414.5 C 727.621,416.316 728.121,418.316 728,420.5C 727.167,419.667 726.333,418.833 725.5,418C 726.337,416.989 726.67,415.822 726.5,414.5 Z"/></g>
<g><path style="opacity:1" fill="#fefefe" d="M 662.5,396.5 C 676.504,396.333 690.504,396.5 704.5,397C 702.288,399.921 700.455,403.088 699,406.5C 698.333,405.167 697.667,403.833 697,402.5C 694.646,402.892 692.146,402.892 689.5,402.5C 689.667,414.505 689.5,426.505 689,438.5C 688.5,426.171 688.333,413.838 688.5,401.5C 690.857,401.663 693.19,401.497 695.5,401C 692.649,399.711 689.649,399.211 686.5,399.5C 686.333,412.504 686.5,425.504 687,438.5C 688.255,439.211 689.421,440.044 690.5,441C 685.5,441.667 680.5,441.667 675.5,441C 676.667,439.833 677.833,438.667 679,437.5C 679.5,425.838 679.667,414.171 679.5,402.5C 671.606,402.473 671.606,401.807 679.5,400.5C 672.489,398.094 668.322,400.428 667,407.5C 665.487,403.812 663.987,400.145 662.5,396.5 Z"/></g>
<g><path style="opacity:1" fill="#fefffe" d="M 635.5,438.5 C 619.922,446.365 609.422,442.031 604,425.5C 602.089,415.636 604.589,407.136 611.5,400C 630.385,392.845 640.385,399.511 641.5,420C 641.721,426.971 639.721,433.137 635.5,438.5 Z"/></g>
<g><path style="opacity:1" fill="#1f1e1c" d="M 619.5,399.5 C 624.865,398.849 628.865,400.849 631.5,405.5C 634.519,415.704 634.019,425.704 630,435.5C 619.969,442.329 613.636,439.662 611,427.5C 609.989,420 610.655,412.667 613,405.5C 614.436,402.558 616.603,400.558 619.5,399.5 Z"/></g>
<g><path style="opacity:1" fill="#fefffe" d="M 613.5,413.5 C 614.514,419.349 615.014,425.349 615,431.5C 613.639,425.593 613.139,419.593 613.5,413.5 Z"/></g>
<g><path style="opacity:1" fill="#fefffe" d="M 618.5,402.5 C 619.239,402.369 619.906,402.536 620.5,403C 619.333,404.167 618.167,405.333 617,406.5C 616.7,404.934 617.2,403.601 618.5,402.5 Z"/></g>
<g><path style="opacity:1" fill="#fefefe" d="M 558.5,396.5 C 572.504,396.333 586.504,396.5 600.5,397C 598.288,399.921 596.455,403.088 595,406.5C 594.333,405.167 593.667,403.833 593,402.5C 590.646,402.892 588.146,402.892 585.5,402.5C 585.667,414.505 585.5,426.505 585,438.5C 584.5,426.171 584.333,413.838 584.5,401.5C 586.857,401.663 589.19,401.497 591.5,401C 588.649,399.711 585.649,399.211 582.5,399.5C 582.333,412.504 582.5,425.504 583,438.5C 584.255,439.211 585.421,440.044 586.5,441C 581.5,441.667 576.5,441.667 571.5,441C 572.667,439.833 573.833,438.667 575,437.5C 575.5,425.838 575.667,414.171 575.5,402.5C 567.606,402.473 567.606,401.807 575.5,400.5C 568.489,398.094 564.322,400.428 563,407.5C 561.487,403.812 559.987,400.145 558.5,396.5 Z"/></g>
<g><path style="opacity:1" fill="#fefffe" d="M 533.5,438.5 C 534.008,440.233 534.841,440.566 536,439.5C 537.039,440.244 537.539,441.244 537.5,442.5C 531.915,441.712 526.248,441.212 520.5,441C 521.667,439.833 522.833,438.667 524,437.5C 524.499,432.845 524.666,428.179 524.5,423.5C 517.959,423.462 517.959,422.796 524.5,421.5C 523.667,421.167 522.833,420.833 522,420.5C 516.832,422.176 516.332,421.342 520.5,418C 521.793,417.51 523.127,417.343 524.5,417.5C 524.666,411.824 524.499,406.157 524,400.5C 522.833,399.333 521.667,398.167 520.5,397C 529.562,396.119 538.562,396.452 547.5,398C 554.812,401.46 556.979,406.96 554,414.5C 552.457,416.378 550.624,417.878 548.5,419C 542.912,420.289 537.245,420.789 531.5,420.5C 530.88,426.926 531.547,432.926 533.5,438.5 Z"/></g>
<g><path style="opacity:1" fill="#1b1a18" d="M 531.5,399.5 C 535.605,399.234 539.605,399.734 543.5,401C 548.756,406.076 548.756,411.076 543.5,416C 540.607,417.149 537.607,417.649 534.5,417.5C 534.5,412.833 534.5,408.167 534.5,403.5C 537.187,403.664 539.854,403.497 542.5,403C 539.518,402.502 536.518,402.335 533.5,402.5C 533.827,407.544 533.494,412.544 532.5,417.5C 531.504,411.537 531.171,405.537 531.5,399.5 Z"/></g>
<g><path style="opacity:1" fill="#fefffe" d="M 514.5,396.5 C 514.539,397.756 514.039,398.756 513,399.5C 512.415,398.002 512.915,397.002 514.5,396.5 Z"/></g>
<g><path style="opacity:1" fill="#fefefe" d="M 439.5,396.5 C 447.988,395.162 455.488,397.162 462,402.5C 464,405.833 464,409.167 462,412.5C 459.093,415.705 455.593,418.038 451.5,419.5C 454.656,427.816 459.323,435.149 465.5,441.5C 461.765,443.117 458.265,445.117 455,447.5C 453.604,438.581 451.27,429.915 448,421.5C 444.905,420.605 441.738,420.605 438.5,421.5C 438.334,426.844 438.501,432.177 439,437.5C 439.333,437.833 439.667,438.167 440,438.5C 440.499,433.511 440.666,428.511 440.5,423.5C 444.838,423.622 445.172,423.955 441.5,424.5C 441.334,429.179 441.501,433.845 442,438.5C 442.5,439 443,439.5 443.5,440C 438.345,441.61 433.012,441.943 427.5,441C 430.907,438.755 432.24,435.588 431.5,431.5C 431.41,429.036 430.743,426.87 429.5,425C 430.308,424.692 430.975,424.192 431.5,423.5C 430.224,422.355 428.891,422.355 427.5,423.5C 426.247,420.08 427.581,418.746 431.5,419.5C 431.666,413.824 431.499,408.157 431,402.5C 430.25,401.874 429.416,401.374 428.5,401C 431.979,398.791 435.646,397.291 439.5,396.5 Z"/></g>
<g><path style="opacity:1" fill="#232220" d="M 449.5,400.5 C 454.93,401.69 457.097,405.023 456,410.5C 452.853,415.288 448.353,417.955 442.5,418.5C 441.505,412.872 441.171,407.206 441.5,401.5C 443.948,400.527 446.615,400.194 449.5,400.5 Z"/></g>
<g><path style="opacity:1" fill="#1a1a17" d="M 449.5,400.5 C 446.615,400.194 443.948,400.527 441.5,401.5C 440.833,407.014 440.167,412.681 439.5,418.5C 438.504,412.202 438.17,405.868 438.5,399.5C 442.371,399.185 446.038,399.518 449.5,400.5 Z"/></g>
<g><path style="opacity:1" fill="#fcfcfc" d="M 875.5,400.5 C 873.205,398.615 870.538,398.115 867.5,399C 865.249,399.748 863.916,401.248 863.5,403.5C 863.5,405.167 863.5,406.833 863.5,408.5C 863.414,409.496 863.748,410.329 864.5,411C 868.95,413.261 873.617,414.928 878.5,416C 886.446,418.723 889.613,424.223 888,432.5C 885.389,439.312 880.389,442.645 873,442.5C 865.928,441.031 859.095,440.031 852.5,439.5C 854.607,435.619 856.441,431.619 858,427.5C 860.922,437.189 867.089,441.022 876.5,439C 881.804,437.226 883.471,433.726 881.5,428.5C 879.833,427.667 878.167,426.833 876.5,426C 877.5,425.667 878.5,425.333 879.5,425C 879.167,424.667 878.833,424.333 878.5,424C 872.413,422.25 866.413,420.25 860.5,418C 853.91,411.366 853.91,404.699 860.5,398C 867.718,394.949 875.051,394.783 882.5,397.5C 883.772,397.43 884.938,397.097 886,396.5C 884.569,400.422 882.902,404.422 881,408.5C 880.275,406.051 879.275,403.717 878,401.5C 877.329,400.748 876.496,400.414 875.5,400.5 Z"/></g>
<g><path style="opacity:1" fill="#fefffe" d="M 875.5,400.5 C 876.85,401.65 876.684,402.317 875,402.5C 868.674,400.028 864.84,402.028 863.5,408.5C 863.5,406.833 863.5,405.167 863.5,403.5C 866.909,400.028 870.909,399.028 875.5,400.5 Z"/></g>
<g><path style="opacity:1" fill="#1a1a17" d="M 875.5,400.5 C 870.909,399.028 866.909,400.028 863.5,403.5C 863.916,401.248 865.249,399.748 867.5,399C 870.538,398.115 873.205,398.615 875.5,400.5 Z"/></g>
<g><path style="opacity:1" fill="#fefffe" d="M 399.5,395.5 C 406.873,396.014 413.873,397.014 420.5,398.5C 418.139,401.888 416.306,405.554 415,409.5C 413.642,406.619 412.142,403.786 410.5,401C 402.873,396.465 397.373,398.299 394,406.5C 391.77,415.276 392.103,423.943 395,432.5C 396.141,434.609 397.641,436.442 399.5,438C 409.741,441.764 415.574,437.931 417,426.5C 417.414,426.043 417.914,425.709 418.5,425.5C 419.329,438.799 412.995,444.299 399.5,442C 391.142,439.64 386.309,434.14 385,425.5C 382.683,411.804 387.517,401.804 399.5,395.5 Z"/></g>
<g><path style="opacity:1" fill="#fefffe" d="M 399.5,401.5 C 400.239,401.369 400.906,401.536 401.5,402C 400.333,403.167 399.167,404.333 398,405.5C 397.7,403.934 398.2,402.601 399.5,401.5 Z"/></g>
<g><path style="opacity:1" fill="#fefffe" d="M 514.5,396.5 C 514.461,395.244 514.961,394.244 516,393.5C 516.585,394.998 516.085,395.998 514.5,396.5 Z"/></g>
<g><path style="opacity:1" fill="#fefffe" d="M 521.5,386.5 C 522.525,386.897 522.692,387.563 522,388.5C 520.667,389.833 519.333,391.167 518,392.5C 517.333,391.833 517.333,391.167 518,390.5C 519.376,389.295 520.542,387.962 521.5,386.5 Z"/></g>
<g><path style="opacity:1" fill="#fefffe" d="M 517.5,385.5 C 518.552,385.351 519.552,385.517 520.5,386C 518.667,387.833 516.833,389.667 515,391.5C 508.667,401.5 502.333,411.5 496,421.5C 495.333,426.833 495.333,432.167 496,437.5C 497.533,439.846 499.366,440.846 501.5,440.5C 495.528,441.664 489.528,441.83 483.5,441C 485.286,440.215 486.786,439.049 488,437.5C 488.667,432.167 488.667,426.833 488,421.5C 483.581,414.328 478.915,407.328 474,400.5C 472.59,399.213 471.09,398.046 469.5,397C 475.167,396.333 480.833,396.333 486.5,397C 485.167,398.333 483.833,399.667 482.5,401C 486.333,406.833 490.167,412.667 494,418.5C 497.178,413.064 501.178,407.064 506,400.5C 508.447,396.803 507.947,393.636 504.5,391C 509.011,389.445 513.344,387.612 517.5,385.5 Z"/></g>
<g><path style="opacity:1" fill="#fefffe" d="M 490.5,408.5 C 492.085,409.002 492.585,410.002 492,411.5C 490.961,410.756 490.461,409.756 490.5,408.5 Z"/></g>
<g><path style="opacity:1" fill="#fefffe" d="M 488.5,405.5 C 489.906,405.973 490.573,406.973 490.5,408.5C 489.094,408.027 488.427,407.027 488.5,405.5 Z"/></g>
<g><path style="opacity:1" fill="#fefffe" d="M 486.5,402.5 C 487.906,402.973 488.573,403.973 488.5,405.5C 487.094,405.027 486.427,404.027 486.5,402.5 Z"/></g>
<g><path style="opacity:1" fill="#fefffe" d="M 486.5,402.5 C 485.711,402.217 485.044,401.717 484.5,401C 485.766,399.017 487.432,398.017 489.5,398C 487.859,399.129 486.859,400.629 486.5,402.5 Z"/></g>
<g><path style="opacity:1" fill="#191816" d="M 832.5,491.5 C 703.833,491.5 575.167,491.5 446.5,491.5C 446.821,496.695 446.487,501.695 445.5,506.5C 445.5,500.833 445.5,495.167 445.5,489.5C 574.838,488.835 703.838,489.502 832.5,491.5 Z"/></g>
<g><path style="opacity:1" fill="#1b1918" d="M 832.5,491.5 C 832.83,497.868 832.496,504.202 831.5,510.5C 767.399,547.633 703.232,584.633 639,621.5C 574.714,584.716 510.548,547.716 446.5,510.5C 445.571,509.311 445.238,507.978 445.5,506.5C 446.487,501.695 446.821,496.695 446.5,491.5C 575.167,491.5 703.833,491.5 832.5,491.5 Z"/></g>
<g><path style="opacity:1" fill="#df9225" d="M 668.5,519.5 C 670.828,516.393 672.328,512.726 673,508.5C 674.714,507.075 676.047,507.408 677,509.5C 678,513.167 679,516.833 680,520.5C 681.708,516.837 682.874,513.004 683.5,509C 683.561,507.289 682.894,505.956 681.5,505C 683.615,504.443 685.615,503.609 687.5,502.5C 688.086,502.709 688.586,503.043 689,503.5C 686.066,510.856 683.566,518.523 681.5,526.5C 682.624,527.914 683.624,529.414 684.5,531C 681.167,531.667 677.833,531.667 674.5,531C 675.894,530.044 676.561,528.711 676.5,527C 675.745,523.482 674.912,519.982 674,516.5C 673.215,520.477 672.049,524.311 670.5,528C 671.5,529 672.5,530 673.5,531C 670.167,531.667 666.833,531.667 663.5,531C 664.5,530 665.5,529 666.5,528C 664.44,521.93 662.606,515.764 661,509.5C 660.25,508.874 659.416,508.374 658.5,508C 661.554,507.179 664.554,507.345 667.5,508.5C 667.069,509.293 666.735,510.127 666.5,511C 667.687,513.724 668.353,516.557 668.5,519.5 Z"/></g>
<g><path style="opacity:1" fill="#e59625" d="M 535.5,508.5 C 542.677,507.181 550.01,507.181 557.5,508.5C 556.667,510.167 555.833,511.833 555,513.5C 553.491,511.081 551.325,510.081 548.5,510.5C 548.603,516.861 549.103,523.194 550,529.5C 550.5,530 551,530.5 551.5,531C 548.446,531.821 545.446,531.655 542.5,530.5C 542.808,529.692 543.308,529.025 544,528.5C 544.499,522.843 544.666,517.176 544.5,511.5C 542.738,511.643 541.071,511.309 539.5,510.5C 539.002,511.603 538.669,512.603 538.5,513.5C 537.935,511.456 536.935,509.79 535.5,508.5 Z"/></g>
<g><path style="opacity:1" fill="#e09325" d="M 566.5,508.5 C 569.355,507.197 572.355,507.197 575.5,508.5C 574.406,511.364 574.906,514.031 577,516.5C 577.718,515.549 578.551,515.383 579.5,516C 581.977,518.761 581.644,520.594 578.5,521.5C 579.261,525.365 581.261,528.365 584.5,530.5C 585.799,529.91 586.632,528.91 587,527.5C 587.667,521.5 587.667,515.5 587,509.5C 586.5,509 586,508.5 585.5,508C 588.833,507.333 592.167,507.333 595.5,508C 594.978,508.561 594.645,509.228 594.5,510C 598.879,525.303 600.379,525.136 599,509.5C 598.5,509 598,508.5 597.5,508C 599.833,507.333 602.167,507.333 604.5,508C 603.692,508.308 603.025,508.808 602.5,509.5C 603.465,516.776 603.799,524.109 603.5,531.5C 601.278,531.822 599.444,531.155 598,529.5C 596,524.833 594,520.167 592,515.5C 591.333,519.833 591.333,524.167 592,528.5C 592.833,529.333 593.667,530.167 594.5,531C 587.833,531.667 581.167,531.667 574.5,531C 574.167,530.667 573.833,530.333 573.5,530C 574.428,529.612 575.095,528.945 575.5,528C 575.168,522.835 573.668,522.335 571,526.5C 569.287,525.122 567.953,523.455 567,521.5C 565.996,524.993 566.496,528.159 568.5,531C 564.833,531.667 561.167,531.667 557.5,531C 562.791,526.674 564.624,521.507 563,515.5C 563.741,516.641 564.575,516.641 565.5,515.5C 566.406,513.614 567.406,511.78 568.5,510C 567.956,509.283 567.289,508.783 566.5,508.5 Z"/></g>
<g><path style="opacity:1" fill="#f9a323" d="M 615.5,509.5 C 615.19,512.713 615.523,515.713 616.5,518.5C 614.307,520.355 612.974,522.689 612.5,525.5C 612.477,527.067 612.977,528.4 614,529.5C 614.667,520.167 615.333,520.167 616,529.5C 616.75,530.126 617.584,530.626 618.5,531C 614.638,531.913 610.972,531.58 607.5,530C 608,529.5 608.5,529 609,528.5C 609.667,522.167 609.667,515.833 609,509.5C 608.5,509 608,508.5 607.5,508C 611.033,507.097 614.367,507.43 617.5,509C 616.906,509.464 616.239,509.631 615.5,509.5 Z"/></g>
<g><path style="opacity:1" fill="#f29e24" d="M 616.5,518.5 C 617.737,515.755 619.57,513.422 622,511.5C 622.483,510.552 622.649,509.552 622.5,508.5C 622.379,507.157 624.712,506.99 629.5,508C 628.284,509.74 626.618,510.74 624.5,511C 622.99,512.351 621.99,514.018 621.5,516C 623.401,521.139 626.068,525.806 629.5,530C 632.167,530.667 634.833,530.667 637.5,530C 635.369,529.457 633.369,528.624 631.5,527.5C 632.098,526.205 632.598,524.872 633,523.5C 633.667,526.167 634.333,526.167 635,523.5C 636.043,528.223 638.876,530.056 643.5,529C 645.602,527.267 645.935,525.267 644.5,523C 640.791,522.367 637.291,521.2 634,519.5C 630.36,515.049 630.86,511.215 635.5,508C 639.5,507.333 643.5,507.333 647.5,508C 647.969,509.962 647.303,511.795 645.5,513.5C 643.443,510.046 640.61,509.046 637,510.5C 636.641,513.544 635.974,513.878 635,511.5C 634.289,513.367 634.789,514.867 636.5,516C 640.984,516.571 644.818,518.404 648,521.5C 648.667,526.833 649.333,526.833 650,521.5C 651.141,526.384 649.308,529.55 644.5,531C 636.5,531.667 628.5,531.667 620.5,531C 621.357,530.311 622.023,529.478 622.5,528.5C 620.581,525.153 619.248,521.987 618.5,519C 617.906,518.536 617.239,518.369 616.5,518.5 Z"/></g>
<g><path style="opacity:1" fill="#e29425" d="M 696.5,508.5 C 699.355,507.197 702.355,507.197 705.5,508.5C 704.406,511.364 704.906,514.031 707,516.5C 707.718,515.549 708.551,515.383 709.5,516C 711.977,518.761 711.644,520.594 708.5,521.5C 709.363,525.393 711.363,528.56 714.5,531C 710.638,531.913 706.972,531.58 703.5,530C 704.428,529.612 705.095,528.945 705.5,528C 705.168,522.835 703.668,522.335 701,526.5C 699.287,525.122 697.953,523.455 697,521.5C 695.996,524.993 696.496,528.159 698.5,531C 694.833,531.667 691.167,531.667 687.5,531C 692.791,526.674 694.624,521.507 693,515.5C 693.741,516.641 694.575,516.641 695.5,515.5C 696.406,513.614 697.406,511.78 698.5,510C 697.956,509.283 697.289,508.783 696.5,508.5 Z"/></g>
<g><path style="opacity:1" fill="#f49f24" d="M 726.5,520.5 C 722.709,518.742 720.709,520.075 720.5,524.5C 720.436,526.389 720.936,528.056 722,529.5C 721.947,526.325 722.78,523.658 724.5,521.5C 722.755,525.218 723.422,528.384 726.5,531C 722.638,531.913 718.972,531.58 715.5,530C 716.944,528.874 717.61,527.374 717.5,525.5C 716.932,523.796 716.932,522.296 717.5,521C 716.833,520.667 716.167,520.333 715.5,520C 716.704,518.647 717.371,516.981 717.5,515C 717.371,513.019 716.704,511.353 715.5,510C 717.025,508.991 718.692,508.491 720.5,508.5C 725.804,506.636 730.637,507.636 735,511.5C 735.683,515.84 733.85,518.673 729.5,520C 731.565,524.481 734.565,528.148 738.5,531C 736.156,532.028 733.823,532.694 731.5,533C 729.601,528.878 727.934,524.712 726.5,520.5 Z"/></g>
<g><path style="opacity:1" fill="#1a1a17" d="M 615.5,509.5 C 614.926,513.164 614.093,516.831 613,520.5C 612.333,516.833 612.333,513.167 613,509.5C 613.977,508.226 614.811,508.226 615.5,509.5 Z"/></g>
<g><path style="opacity:1" fill="#1a1a17" d="M 720.5,508.5 C 722.857,508.337 725.19,508.503 727.5,509C 725.866,509.494 724.199,509.66 722.5,509.5C 722.817,512.572 722.484,515.572 721.5,518.5C 720.513,515.232 720.18,511.898 720.5,508.5 Z"/></g>
<g><path style="opacity:1" fill="#1a1a17" d="M 723.5,510.5 C 725.861,510.674 728.194,511.007 730.5,511.5C 730.701,515.637 728.701,517.97 724.5,518.5C 723.52,515.914 723.187,513.247 723.5,510.5 Z"/></g>
<g><path style="opacity:1" fill="#1a1a17" d="M 588.5,511.5 C 589.117,511.611 589.617,511.944 590,512.5C 590.667,517.833 590.667,523.167 590,528.5C 588.551,523.019 588.051,517.352 588.5,511.5 Z"/></g>
<g><path style="opacity:1" fill="#1a1a17" d="M 569.5,513.5 C 570.864,515.22 571.864,517.22 572.5,519.5C 570.757,521.724 569.424,521.224 568.5,518C 569.148,516.56 569.481,515.06 569.5,513.5 Z"/></g>
<g><path style="opacity:1" fill="#1a1a17" d="M 699.5,513.5 C 700.864,515.22 701.864,517.22 702.5,519.5C 700.757,521.724 699.424,521.224 698.5,518C 699.148,516.56 699.481,515.06 699.5,513.5 Z"/></g>
<g><path style="opacity:1" fill="#1a1a17" d="M 576.5,518.5 C 577.552,518.351 578.552,518.517 579.5,519C 578.333,519.5 577.5,520.333 577,521.5C 576.517,520.552 576.351,519.552 576.5,518.5 Z"/></g>
<g><path style="opacity:1" fill="#1a1a17" d="M 706.5,518.5 C 707.552,518.351 708.552,518.517 709.5,519C 708.333,519.5 707.5,520.333 707,521.5C 706.517,520.552 706.351,519.552 706.5,518.5 Z"/></g>
<g><path style="opacity:1" fill="#1a1a17" d="M 668.5,519.5 C 669.028,520.847 669.195,522.181 669,523.5C 667.37,522.182 667.203,520.849 668.5,519.5 Z"/></g>
<g><path style="opacity:1" fill="#1a1a17" d="M 726.5,520.5 C 725.508,520.328 724.842,520.662 724.5,521.5C 722.78,523.658 721.947,526.325 722,529.5C 720.936,528.056 720.436,526.389 720.5,524.5C 720.709,520.075 722.709,518.742 726.5,520.5 Z"/></g>
<g><path style="opacity:0.898" fill="#3f3119" d="M 714.5,551.5 C 664.167,550.167 613.833,550.167 563.5,551.5C 562.957,551.44 562.624,551.107 562.5,550.5C 613.5,549.167 664.5,549.167 715.5,550.5C 715.376,551.107 715.043,551.44 714.5,551.5 Z"/></g>
<g><path style="opacity:1" fill="#fca825" d="M 563.5,551.5 C 613.833,550.167 664.167,550.167 714.5,551.5C 689.544,566.227 664.377,580.561 639,594.5C 613.623,580.561 588.456,566.227 563.5,551.5 Z"/></g>
</svg>
